<?xml version="1.0" encoding="UTF-8" standalone="no"?>
<!-- Generator: Adobe Illustrator 18.1.1, SVG Export Plug-In . SVG Version: 6.00 Build 0)  -->

<svg
   xmlns:dc="http://purl.org/dc/elements/1.1/"
   xmlns:cc="http://creativecommons.org/ns#"
   xmlns:rdf="http://www.w3.org/1999/02/22-rdf-syntax-ns#"
   xmlns:svg="http://www.w3.org/2000/svg"
   xmlns="http://www.w3.org/2000/svg"
   xmlns:sodipodi="http://sodipodi.sourceforge.net/DTD/sodipodi-0.dtd"
   xmlns:inkscape="http://www.inkscape.org/namespaces/inkscape"
   version="1.1"
   id="Layer_1"
   x="0px"
   y="0px"
   viewBox="0 0 17.173553 24.575211"
   enable-background="new 0 0 567 661.5"
   xml:space="preserve"
   inkscape:version="0.48.5 r10040"
   width="100%"
   height="100%"
   sodipodi:docname="original.svg"
   inkscape:export-filename="D:\Projects\acfe\resources\public\img\markers\2.png"
   inkscape:export-xdpi="104.81232"
   inkscape:export-ydpi="104.81232"><metadata
   id="metadata21"><rdf:RDF><cc:Work
       rdf:about=""><dc:format>image/svg+xml</dc:format><dc:type
         rdf:resource="http://purl.org/dc/dcmitype/StillImage" /><dc:title></dc:title></cc:Work></rdf:RDF></metadata><defs
   id="defs19">
	
	

		
	
		
	</defs><sodipodi:namedview
   pagecolor="#ffffff"
   bordercolor="#666666"
   borderopacity="1"
   objecttolerance="10"
   gridtolerance="10"
   guidetolerance="10"
   inkscape:pageopacity="0"
   inkscape:pageshadow="2"
   inkscape:window-width="1920"
   inkscape:window-height="1017"
   id="namedview17"
   showgrid="false"
   fit-margin-top="0"
   fit-margin-left="0"
   fit-margin-right="0"
   fit-margin-bottom="0"
   inkscape:zoom="16.145338"
   inkscape:cx="-18.741612"
   inkscape:cy="9.661007"
   inkscape:window-x="-8"
   inkscape:window-y="-8"
   inkscape:window-maximized="1"
   inkscape:current-layer="Layer_1" />
<circle
   cx="292.20001"
   cy="257.5"
   r="122.2"
   id="circle3"
   sodipodi:cx="292.20001"
   sodipodi:cy="257.5"
   sodipodi:rx="122.2"
   sodipodi:ry="122.2"
   style="fill:#ffffff"
   transform="translate(-75.075566,-35.045643)" />
<g
   id="g8"
   transform="matrix(0.04056748,0,0,0.04056748,-3.0456269,-0.39812957)"
   style="fill:#000000;fill-opacity:0.73015875">
			<path
   d="M 285.8,615.6 C 268.3,590.5 251.1,566.2 234.1,541.7 194.1,484.2 154,426.9 114.3,369.2 26.3,241.3 93.4,70.3 245.5,40.4 c 126.1,-24.9 229.1,62.3 248,167.2 10.4,57.6 -0.5,110.4 -33.4,158.3 -56.3,82 -113.4,163.4 -170.2,245.1 -1,1.2 -2.2,2.3 -4.1,4.6 z m 0,-273.1 c 53.6,0.1 96.2,-41.7 96.9,-95 0.7,-53.1 -43,-96.7 -96.8,-96.7 -53.4,0 -95.8,42.4 -96,95.9 -0.1,53.3 42.3,95.7 95.9,95.8 z"
   id="path10"
   inkscape:connector-curvature="0"
   style="fill:#000000;fill-opacity:0.73015875" />
		</g>
<path
   style="fill:#ff0000;fill-opacity:1"
   inkscape:connector-curvature="0"
   id="path10-4"
   d="M 8.5935988,23.508347 C 7.8836679,22.490104 7.1859072,21.504314 6.4962601,20.510411 4.8735609,18.17778 3.2468049,15.853264 1.636276,13.51252 -1.9336623,8.3239395 0.78841563,1.3869004 6.9587293,0.17393279 12.074289,-0.83619746 16.252739,2.7012868 17.019464,6.9568154 c 0.421902,2.3366869 -0.02028,4.4786496 -1.354953,6.4218326 -2.28395,3.326533 -4.600353,6.628726 -6.9045855,9.943089 -0.040567,0.04868 -0.089249,0.09331 -0.1663267,0.18661 z m 0,-11.078978 c 2.1744172,0.0041 3.9025912,-1.691664 3.9309892,-3.8539111 0.0284,-2.1541332 -1.744402,-3.9228753 -3.9269325,-3.9228753 -2.1663034,0 -3.8863646,1.7200611 -3.894478,3.8904213 -0.00406,2.1622471 1.7160044,3.8823081 3.8904213,3.8863651 z"
   inkscape:export-filename="D:\Projects\acfe\resources\public\img\markers\4.png"
   inkscape:export-xdpi="104.81232"
   inkscape:export-ydpi="104.81232" /></svg>